0
SECTION
2
HEADER
9
$INSUNITS
70
4
9
$ACADVER
1
AC1014
9
$HANDSEED
5
FFFF
0
ENDSEC
0
SECTION
2
TABLES
0
TABLE
2
VPORT
5
8
100
AcDbSymbolTable
0
ENDTAB
0
TABLE
2
LTYPE
5
5
100
AcDbSymbolTable
0
LTYPE
5
14
100
AcDbSymbolTableRecord
100
AcDbLinetypeTableRecord
2
BYBLOCK
70
0
0
LTYPE
5
15
100
AcDbSymbolTableRecord
100
AcDbLinetypeTableRecord
2
BYLAYER
70
0
0
ENDTAB
0
TABLE
2
LAYER
5
2
100
AcDbSymbolTable
70
2
0
LAYER
5
50
100
AcDbSymbolTableRecord
100
AcDbLayerTableRecord
2
0
70
0
6
CONTINUOUS
0
ENDTAB
0
TABLE
2
STYLE
5
3
100
AcDbSymbolTable
70
1
0
STYLE
5
11
100
AcDbSymbolTableRecord
100
AcDbTextStyleTableRecord
2
STANDARD
70
0
0
ENDTAB
0
TABLE
2
VIEW
5
6
100
AcDbSymbolTable
70
0
0
ENDTAB
0
TABLE
2
UCS
5
7
100
AcDbSymbolTable
70
0
0
ENDTAB
0
TABLE
2
APPID
5
9
100
AcDbSymbolTable
70
2
0
APPID
5
12
100
AcDbSymbolTableRecord
100
AcDbRegAppTableRecord
2
ACAD
70
0
0
ENDTAB
0
TABLE
2
DIMSTYLE
5
A
100
AcDbSymbolTable
70
1
0
ENDTAB
0
TABLE
2
BLOCK_RECORD
5
1
100
AcDbSymbolTable
70
1
0
BLOCK_RECORD
5
1F
100
AcDbSymbolTableRecord
100
AcDbBlockTableRecord
2
*MODEL_SPACE
0
BLOCK_RECORD
5
1B
100
AcDbSymbolTableRecord
100
AcDbBlockTableRecord
2
*PAPER_SPACE
0
ENDTAB
0
ENDSEC
0
SECTION
2
BLOCKS
0
BLOCK
5
20
100
AcDbEntity
100
AcDbBlockBegin
2
*MODEL_SPACE
0
ENDBLK
5
21
100
AcDbEntity
100
AcDbBlockEnd
0
BLOCK
5
1C
100
AcDbEntity
100
AcDbBlockBegin
2
*PAPER_SPACE
0
ENDBLK
5
1D
100
AcDbEntity
100
AcDbBlockEnd
0
ENDSEC
0
SECTION
2
ENTITIES
0
LWPOLYLINE
5
100
100
AcDbEntity
8
0
100
AcDbPolyline
90
16
70
1
43
0.0
10
-165.42500000000001
20
78.224999999999994
42
0.4142135623730222
10
-165.92500000000001
20
78.725000000000023
10
-168.42500000000001
20
78.725000000000009
42
-0.41421356237312623
10
-168.92500000000001
20
79.224999999999994
10
-168.92499999999998
20
92.224999999999994
42
-0.41421356237307422
10
-168.42500000000001
20
92.724999999999994
10
-155.42500000000001
20
92.725000000000009
42
-0.41421356237307422
10
-154.92500000000001
20
92.224999999999994
10
-154.92500000000004
20
79.224999999999994
42
-0.41421356237310542
10
-155.42500000000001
20
78.724999999999994
10
-157.92500000000001
20
78.724999999999994
42
0.41421356237310542
10
-158.42500000000001
20
78.224999999999994
10
-158.42500000000001
20
77.224999999999994
42
-0.41421356237310025
10
-158.92500000000001
20
76.724999999999994
10
-164.92500000000004
20
76.725000000000051
42
-0.41421356237312101
10
-165.42500000000001
20
77.224999999999994
0
LWPOLYLINE
5
101
100
AcDbEntity
8
0
100
AcDbPolyline
90
16
70
1
43
0.0
10
-108.27500000000001
20
78.224999999999994
42
0.41421356237310542
10
-108.77500000000001
20
78.724999999999994
10
-111.27500000000001
20
78.72499999999998
42
-0.41421356237310025
10
-111.77500000000002
20
79.224999999999994
10
-111.77500000000001
20
92.224999999999994
42
-0.41421356237313667
10
-111.27500000000001
20
92.724999999999994
10
-98.275000000000006
20
92.724999999999994
42
-0.41421356237313667
10
-97.77500000000002
20
92.224999999999994
10
-97.775000000000006
20
79.224999999999994
42
-0.41421356237310542
10
-98.275000000000006
20
78.724999999999994
10
-100.77500000000001
20
78.724999999999994
42
0.41421356237310542
10
-101.27500000000001
20
78.224999999999994
10
-101.27500000000001
20
77.224999999999994
42
-0.41421356237310025
10
-101.77500000000002
20
76.724999999999994
10
-107.77500000000002
20
76.725000000000009
42
-0.41421356237309503
10
-108.27500000000001
20
77.224999999999994
0
LWPOLYLINE
5
102
100
AcDbEntity
8
0
100
AcDbPolyline
90
16
70
1
43
0.0
10
-51.125000000000014
20
78.224999999999994
42
0.41421356237310542
10
-51.625000000000014
20
78.724999999999994
10
-54.125000000000014
20
78.724999999999994
42
-0.41421356237308982
10
-54.625
20
79.224999999999994
10
-54.624999999999993
20
92.224999999999994
42
-0.41421356237311585
10
-54.125000000000007
20
92.724999999999994
10
-41.125000000000007
20
92.725000000000009
42
-0.41421356237309503
10
-40.625
20
92.224999999999994
10
-40.625
20
79.224999999999994
42
-0.41421356237309503
10
-41.125
20
78.724999999999994
10
-43.625000000000007
20
78.724999999999994
42
0.41421356237310542
10
-44.125000000000007
20
78.224999999999994
10
-44.125
20
77.224999999999994
42
-0.41421356237311585
10
-44.625
20
76.724999999999994
10
-50.625
20
76.724999999999994
42
-0.41421356237311585
10
-51.125000000000007
20
77.224999999999994
0
LWPOLYLINE
5
103
100
AcDbEntity
8
0
100
AcDbPolyline
90
32
70
1
43
0.0
10
-1.5749999999999997
20
19.57500000000001
42
0.41421356237309537
10
-0.5249999999999988
20
20.625000000000007
10
-0.52499999999999991
20
93.674999999999983
42
0.41421356237308926
10
-1.5749999999999889
20
94.72499999999998
10
-17.474999999999987
20
94.72499999999998
42
0.41421356237309814
10
-18.525000000000002
20
93.674999999999983
10
-18.524999999999991
20
76.725000000000009
42
-0.41421356237309503
10
-19.574999999999996
20
75.674999999999997
10
-37.574999999999996
20
75.675000000000011
42
-0.41421356237309503
10
-38.625
20
76.725000000000009
10
-38.625
20
93.674999999999983
42
0.41421356237308887
10
-39.674999999999976
20
94.72499999999998
10
-169.875
20
94.72499999999998
42
0.41421356237306534
10
-170.92499999999998
20
93.674999999999983
10
-170.92500000000004
20
76.725000000000009
42
-0.41421356237309503
10
-171.97500000000005
20
75.674999999999997
10
-189.97500000000002
20
75.674999999999997
42
-0.41421356237309503
10
-191.02500000000003
20
76.725000000000009
10
-191.02500000000003
20
93.674999999999983
42
0.41421356237309009
10
-192.07500000000005
20
94.724999999999966
10
-207.97499999999999
20
94.72499999999998
42
0.41421356237309009
10
-209.02500000000003
20
93.674999999999983
10
-209.02500000000001
20
20.625
42
0.41421356237309254
10
-207.97499999999999
20
19.575000000000003
10
-105.30000000000001
20
19.575000000000006
42
-0.41421356237309503
10
-104.25
20
18.525000000000002
10
-104.25
20
1.575000000000002
42
0.4142135623730856
10
-103.2
20
0.52499999999999603
10
-11.099999999999994
20
0.52500000000000213
42
0.41421356237309287
10
-10.050000000000004
20
1.5750000000000024
10
-10.050000000000001
20
18.525000000000002
42
-0.41421356237309503
10
-9.0000000000000018
20
19.575000000000003
0
LWPOLYLINE
5
104
100
AcDbEntity
8
0
100
AcDbPolyline
90
8
70
1
43
0.0
10
-155.42500000000001
20
21.575000000000003
42
0.4142135623730846
10
-154.92500000000004
20
22.074999999999999
10
-154.92500000000001
20
35.075000000000003
42
0.41421356237307161
10
-155.42500000000001
20
35.57500000000001
10
-168.42500000000001
20
35.575000000000003
42
0.41421356237312101
10
-168.92500000000001
20
35.075000000000003
10
-168.92500000000001
20
22.074999999999999
42
0.41421356237310281
10
-168.42500000000001
20
21.574999999999992
0
LWPOLYLINE
5
105
100
AcDbEntity
8
0
100
AcDbPolyline
90
8
70
1
43
0.0
10
-3.0249999999999999
20
78.724999999999994
42
0.41421356237309698
10
-2.5249999999999986
20
79.224999999999994
10
-2.5249999999999999
20
92.224999999999994
42
0.41421356237310675
10
-3.0250000000000021
20
92.725000000000009
10
-16.024999999999999
20
92.724999999999994
42
0.41421356237311452
10
-16.524999999999999
20
92.224999999999994
10
-16.524999999999999
20
79.224999999999994
42
0.41421356237310281
10
-16.024999999999991
20
78.724999999999994
0
LWPOLYLINE
5
106
100
AcDbEntity
8
0
100
AcDbPolyline
90
8
70
1
43
0.0
10
-22.074999999999999
20
40.625
42
0.41421356237309503
10
-21.575000000000003
20
41.125
10
-21.575000000000003
20
54.125000000000007
42
0.41421356237309243
10
-22.074999999999996
20
54.625
10
-35.075000000000003
20
54.625
42
0.41421356237309503
10
-35.57500000000001
20
54.125000000000007
10
-35.575000000000003
20
41.125
42
0.41421356237308721
10
-35.075000000000003
20
40.625
0
LWPOLYLINE
5
107
100
AcDbEntity
8
0
100
AcDbPolyline
90
8
70
1
43
0.0
10
-79.224999999999994
20
59.675000000000004
42
0.41421356237310542
10
-78.724999999999994
20
60.174999999999997
10
-78.724999999999994
20
73.174999999999997
42
0.41421356237309503
10
-79.224999999999994
20
73.674999999999997
10
-92.224999999999994
20
73.674999999999997
42
0.41421356237309503
10
-92.725000000000009
20
73.174999999999983
10
-92.724999999999994
20
60.174999999999997
42
0.41421356237311063
10
-92.224999999999994
20
59.675000000000011
0
LWPOLYLINE
5
108
100
AcDbEntity
8
0
100
AcDbPolyline
90
8
70
1
43
0.0
10
-117.32500000000002
20
59.675000000000004
42
0.41421356237310542
10
-116.82500000000002
20
60.174999999999997
10
-116.82500000000002
20
73.174999999999997
42
0.41421356237309503
10
-117.32500000000002
20
73.674999999999997
10
-130.32499999999999
20
73.674999999999997
42
0.41421356237309503
10
-130.82499999999999
20
73.174999999999983
10
-130.82499999999999
20
60.174999999999997
42
0.41421356237310025
10
-130.32499999999999
20
59.674999999999997
0
LWPOLYLINE
5
109
100
AcDbEntity
8
0
100
AcDbPolyline
90
8
70
1
43
0.0
10
-88.75
20
2.5249999999999999
42
0.41421356237310542
10
-88.249999999999972
20
3.0249999999999999
10
-88.250000000000014
20
16.024999999999999
42
0.41421356237311452
10
-88.75
20
16.524999999999991
10
-101.75
20
16.524999999999999
42
0.41421356237310414
10
-102.25000000000001
20
16.024999999999999
10
-102.25000000000001
20
3.0249999999999999
42
0.41421356237309437
10
-101.75
20
2.5249999999999928
0
LWPOLYLINE
5
110
100
AcDbEntity
8
0
100
AcDbPolyline
90
8
70
1
43
0.0
10
-124.41200000000002
20
91.724999999999994
42
0.41421356237312623
10
-124.91200000000003
20
91.225000000000009
10
-124.91200000000001
20
77.224999999999994
42
0.41421356237311063
10
-124.41200000000002
20
76.725000000000009
10
-118.41200000000001
20
76.724999999999994
42
0.41421356237310025
10
-117.91200000000001
20
77.224999999999994
10
-117.91200000000002
20
91.225000000000009
42
0.41421356237312623
10
-118.41200000000001
20
91.724999999999994
0
LWPOLYLINE
5
111
100
AcDbEntity
8
0
100
AcDbPolyline
90
8
70
1
43
0.0
10
-193.52500000000003
20
78.724999999999994
42
0.41421356237307422
10
-193.02499999999998
20
79.224999999999994
10
-193.02500000000003
20
92.224999999999994
42
0.41421356237313667
10
-193.52500000000003
20
92.725000000000009
10
-206.52500000000003
20
92.724999999999994
42
0.41421356237307422
10
-207.02500000000001
20
92.224999999999994
10
-207.02500000000001
20
79.224999999999994
42
0.41421356237310025
10
-206.52500000000003
20
78.725000000000023
0
LWPOLYLINE
5
112
100
AcDbEntity
8
0
100
AcDbPolyline
90
8
70
1
43
0.0
10
-155.42500000000001
20
59.675000000000004
42
0.41421356237310542
10
-154.92500000000004
20
60.174999999999997
10
-154.92500000000001
20
73.174999999999997
42
0.41421356237307422
10
-155.42500000000001
20
73.674999999999997
10
-168.42500000000001
20
73.674999999999997
42
0.41421356237302737
10
-168.92500000000001
20
73.174999999999983
10
-168.92500000000001
20
60.174999999999997
42
0.41421356237312623
10
-168.42500000000001
20
59.674999999999997
0
LWPOLYLINE
5
113
100
AcDbEntity
8
0
100
AcDbPolyline
90
8
70
1
43
0.0
10
-60.174999999999997
20
59.675000000000004
42
0.41421356237310542
10
-59.675000000000004
20
60.174999999999997
10
-59.675000000000004
20
73.174999999999997
42
0.41421356237309503
10
-60.174999999999997
20
73.674999999999997
10
-73.174999999999997
20
73.674999999999997
42
0.41421356237310025
10
-73.674999999999997
20
73.174999999999983
10
-73.674999999999997
20
60.174999999999997
42
0.41421356237310025
10
-73.174999999999983
20
59.675000000000004
0
LWPOLYLINE
5
114
100
AcDbEntity
8
0
100
AcDbPolyline
90
8
70
1
43
0.0
10
-41.125
20
40.625
42
0.41421356237309503
10
-40.625
20
41.125
10
-40.625
20
54.125000000000007
42
0.41421356237310025
10
-41.125000000000007
20
54.625
10
-54.125000000000007
20
54.625
42
0.41421356237309503
10
-54.625
20
54.125000000000007
10
-54.625
20
41.125
42
0.41421356237308982
10
-54.125000000000014
20
40.625
0
LWPOLYLINE
5
115
100
AcDbEntity
8
0
100
AcDbPolyline
90
8
70
1
43
0.0
10
-136.375
20
40.625
42
0.41421356237310025
10
-135.87500000000003
20
41.125
10
-135.875
20
54.125000000000007
42
0.41421356237307422
10
-136.375
20
54.625000000000014
10
-149.375
20
54.625
42
0.41421356237308982
10
-149.875
20
54.125000000000007
10
-149.875
20
41.125
42
0.41421356237309503
10
-149.375
20
40.624999999999993
0
LWPOLYLINE
5
116
100
AcDbEntity
8
0
100
AcDbPolyline
90
8
70
1
43
0.0
10
-69.674999999999997
20
91.724999999999994
42
0.41421356237308982
10
-70.174999999999997
20
91.225000000000023
10
-70.174999999999997
20
77.224999999999994
42
0.41421356237308982
10
-69.675000000000011
20
76.724999999999994
10
-63.674999999999997
20
76.724999999999994
42
0.41421356237311585
10
-63.17499999999999
20
77.224999999999994
10
-63.174999999999997
20
91.225000000000009
42
0.41421356237310542
10
-63.674999999999997
20
91.724999999999994
0
LWPOLYLINE
5
117
100
AcDbEntity
8
0
100
AcDbPolyline
90
8
70
1
43
0.0
10
-3.0249999999999999
20
21.575000000000003
42
0.4142135623730957
10
-2.5250000000000004
20
22.074999999999999
10
-2.5249999999999999
20
35.075000000000003
42
0.41421356237309664
10
-3.0250000000000021
20
35.575000000000003
10
-16.024999999999999
20
35.575000000000003
42
0.41421356237309503
10
-16.524999999999999
20
35.075000000000003
10
-16.524999999999999
20
22.074999999999999
42
0.41421356237310153
10
-16.024999999999991
20
21.575000000000003
0
LWPOLYLINE
5
118
100
AcDbEntity
8
0
100
AcDbPolyline
90
8
70
1
43
0.0
10
-148.28799999999998
20
91.724999999999994
42
0.41421356237309503
10
-148.78799999999998
20
91.225000000000009
10
-148.78799999999998
20
77.224999999999994
42
0.41421356237309503
10
-148.28799999999998
20
76.725000000000009
10
-142.28800000000001
20
76.724999999999994
42
0.41421356237310025
10
-141.78799999999998
20
77.224999999999994
10
-141.78799999999998
20
91.225000000000009
42
0.41421356237307422
10
-142.28800000000001
20
91.725000000000009
0
LWPOLYLINE
5
119
100
AcDbEntity
8
0
100
AcDbPolyline
90
8
70
1
43
0.0
10
-79.224999999999994
20
40.625
42
0.41421356237309503
10
-78.724999999999994
20
41.125
10
-78.724999999999994
20
54.125000000000007
42
0.41421356237309503
10
-79.224999999999994
20
54.625
10
-92.224999999999994
20
54.625
42
0.41421356237308982
10
-92.725000000000009
20
54.125000000000007
10
-92.724999999999994
20
41.125
42
0.41421356237311585
10
-92.224999999999994
20
40.625000000000007
0
LWPOLYLINE
5
120
100
AcDbEntity
8
0
100
AcDbPolyline
90
8
70
1
43
0.0
10
-98.275000000000006
20
40.625
42
0.41421356237308982
10
-97.775000000000006
20
41.125
10
-97.77500000000002
20
54.125000000000007
42
0.41421356237311585
10
-98.275000000000006
20
54.624999999999993
10
-111.27500000000001
20
54.625
42
0.41421356237308982
10
-111.77500000000002
20
54.125000000000007
10
-111.77500000000002
20
41.125
42
0.41421356237309503
10
-111.27500000000001
20
40.624999999999993
0
LWPOLYLINE
5
121
100
AcDbEntity
8
0
100
AcDbPolyline
90
8
70
1
43
0.0
10
-174.47500000000002
20
59.675000000000004
42
0.41421356237307422
10
-173.97499999999997
20
60.174999999999997
10
-173.97500000000002
20
73.174999999999997
42
0.41421356237313145
10
-174.47500000000002
20
73.674999999999997
10
-187.47499999999999
20
73.674999999999997
42
0.41421356237307944
10
-187.97499999999999
20
73.174999999999983
10
-187.97499999999999
20
60.174999999999997
42
0.41421356237313667
10
-187.47499999999999
20
59.674999999999997
0
LWPOLYLINE
5
122
100
AcDbEntity
8
0
100
AcDbPolyline
90
8
70
1
43
0.0
10
-193.52500000000003
20
40.625
42
0.41421356237307422
10
-193.02499999999998
20
41.125
10
-193.02500000000003
20
54.125000000000007
42
0.41421356237313145
10
-193.52500000000003
20
54.625000000000014
10
-206.52500000000003
20
54.625
42
0.4142135623730222
10
-207.02500000000003
20
54.125000000000007
10
-207.02500000000001
20
41.125
42
0.41421356237310025
10
-206.52500000000003
20
40.625000000000028
0
LWPOLYLINE
5
123
100
AcDbEntity
8
0
100
AcDbPolyline
90
8
70
1
43
0.0
10
-60.174999999999997
20
40.625
42
0.41421356237309503
10
-59.675000000000004
20
41.125
10
-59.675000000000004
20
54.125000000000007
42
0.41421356237309503
10
-60.174999999999997
20
54.625
10
-73.174999999999997
20
54.625
42
0.41421356237309503
10
-73.674999999999997
20
54.125000000000007
10
-73.674999999999997
20
41.125
42
0.41421356237310025
10
-73.174999999999983
20
40.625
0
LWPOLYLINE
5
124
100
AcDbEntity
8
0
100
AcDbPolyline
90
8
70
1
43
0.0
10
-3.0249999999999999
20
40.625
42
0.41421356237309437
10
-2.525000000000003
20
41.125
10
-2.5249999999999999
20
54.125000000000007
42
0.41421356237309537
10
-3.0250000000000021
20
54.625
10
-16.024999999999999
20
54.625
42
0.41421356237309503
10
-16.524999999999999
20
54.125000000000007
10
-16.524999999999999
20
41.125
42
0.41421356237310025
10
-16.024999999999991
20
40.625
0
LWPOLYLINE
5
125
100
AcDbEntity
8
0
100
AcDbPolyline
90
8
70
1
43
0.0
10
-60.174999999999997
20
21.575000000000003
42
0.41421356237309764
10
-59.675000000000011
20
22.074999999999999
10
-59.675000000000004
20
35.075000000000003
42
0.41421356237309764
10
-60.174999999999997
20
35.575000000000003
10
-73.174999999999997
20
35.575000000000003
42
0.41421356237308721
10
-73.674999999999997
20
35.075000000000003
10
-73.674999999999997
20
22.074999999999999
42
0.41421356237310025
10
-73.174999999999983
20
21.575000000000003
0
LWPOLYLINE
5
126
100
AcDbEntity
8
0
100
AcDbPolyline
90
8
70
1
43
0.0
10
-136.375
20
59.675000000000004
42
0.41421356237310542
10
-135.87500000000003
20
60.174999999999997
10
-135.875
20
73.174999999999997
42
0.41421356237307422
10
-136.375
20
73.674999999999997
10
-149.375
20
73.674999999999997
42
0.41421356237309503
10
-149.875
20
73.174999999999983
10
-149.875
20
60.174999999999997
42
0.41421356237310025
10
-149.375
20
59.674999999999997
0
LWPOLYLINE
5
127
100
AcDbEntity
8
0
100
AcDbPolyline
90
8
70
1
43
0.0
10
-22.074999999999999
20
59.675000000000004
42
0.41421356237309764
10
-21.574999999999996
20
60.174999999999997
10
-21.575000000000003
20
73.174999999999997
42
0.41421356237309243
10
-22.074999999999996
20
73.674999999999997
10
-35.075000000000003
20
73.674999999999997
42
0.41421356237310025
10
-35.57500000000001
20
73.174999999999983
10
-35.575000000000003
20
60.174999999999997
42
0.41421356237308204
10
-35.075000000000003
20
59.674999999999997
0
LWPOLYLINE
5
128
100
AcDbEntity
8
0
100
AcDbPolyline
90
8
70
1
43
0.0
10
-69.700000000000003
20
2.5249999999999999
42
0.41421356237309664
10
-69.200000000000003
20
3.0249999999999999
10
-69.200000000000003
20
16.024999999999999
42
0.41421356237309764
10
-69.700000000000003
20
16.524999999999999
10
-82.700000000000017
20
16.524999999999999
42
0.41421356237308721
10
-83.200000000000003
20
16.024999999999999
10
-83.200000000000003
20
3.0249999999999999
42
0.41421356237309959
10
-82.700000000000017
20
2.5250000000000106
0
LWPOLYLINE
5
129
100
AcDbEntity
8
0
100
AcDbPolyline
90
8
70
1
43
0.0
10
-117.32500000000002
20
21.575000000000003
42
0.41421356237310802
10
-116.82500000000002
20
22.074999999999999
10
-116.82500000000002
20
35.075000000000003
42
0.41421356237309243
10
-117.32500000000002
20
35.57500000000001
10
-130.32499999999999
20
35.575000000000003
42
0.41421356237309243
10
-130.82499999999999
20
35.075000000000003
10
-130.82499999999999
20
22.074999999999999
42
0.41421356237309503
10
-130.32499999999999
20
21.574999999999992
0
LWPOLYLINE
5
130
100
AcDbEntity
8
0
100
AcDbPolyline
90
8
70
1
43
0.0
10
-193.52500000000003
20
21.575000000000003
42
0.41421356237308204
10
-193.02500000000003
20
22.074999999999999
10
-193.02500000000003
20
35.075000000000003
42
0.41421356237313145
10
-193.52500000000003
20
35.57500000000001
10
-206.52500000000003
20
35.575000000000003
42
0.41421356237312101
10
-207.02500000000003
20
35.075000000000003
10
-207.02500000000001
20
22.074999999999999
42
0.41421356237309764
10
-206.52500000000003
20
21.575000000000028
0
LWPOLYLINE
5
131
100
AcDbEntity
8
0
100
AcDbPolyline
90
8
70
1
43
0.0
10
-3.0249999999999999
20
59.675000000000004
42
0.41421356237309698
10
-2.5249999999999986
20
60.174999999999997
10
-2.5249999999999999
20
73.174999999999997
42
0.41421356237309537
10
-3.0250000000000021
20
73.674999999999997
10
-16.024999999999999
20
73.674999999999997
42
0.41421356237310025
10
-16.524999999999999
20
73.174999999999983
10
-16.524999999999999
20
60.174999999999997
42
0.41421356237310281
10
-16.024999999999991
20
59.675000000000004
0
LWPOLYLINE
5
132
100
AcDbEntity
8
0
100
AcDbPolyline
90
8
70
1
43
0.0
10
-155.42500000000001
20
40.625
42
0.41421356237310025
10
-154.92500000000004
20
41.125
10
-154.92500000000001
20
54.125000000000007
42
0.41421356237307422
10
-155.42500000000001
20
54.625000000000014
10
-168.42500000000001
20
54.625
42
0.4142135623730222
10
-168.92500000000001
20
54.125000000000007
10
-168.92500000000001
20
41.125
42
0.41421356237312101
10
-168.42500000000001
20
40.624999999999993
0
LWPOLYLINE
5
133
100
AcDbEntity
8
0
100
AcDbPolyline
90
8
70
1
43
0.0
10
-41.125
20
59.675000000000004
42
0.41421356237309503
10
-40.625
20
60.174999999999997
10
-40.625
20
73.174999999999997
42
0.41421356237310025
10
-41.125000000000007
20
73.674999999999997
10
-54.125000000000007
20
73.674999999999997
42
0.41421356237310025
10
-54.625
20
73.174999999999983
10
-54.625
20
60.174999999999997
42
0.41421356237308982
10
-54.125000000000014
20
59.675000000000004
0
LWPOLYLINE
5
134
100
AcDbEntity
8
0
100
AcDbPolyline
90
8
70
1
43
0.0
10
-174.47500000000002
20
40.625
42
0.41421356237307422
10
-173.97499999999997
20
41.125
10
-173.97500000000002
20
54.125000000000007
42
0.41421356237313145
10
-174.47500000000002
20
54.625000000000014
10
-187.47499999999999
20
54.625
42
0.41421356237307422
10
-187.97499999999999
20
54.125000000000007
10
-187.97499999999999
20
41.125
42
0.41421356237313145
10
-187.47499999999999
20
40.624999999999993
0
LWPOLYLINE
5
135
100
AcDbEntity
8
0
100
AcDbPolyline
90
8
70
1
43
0.0
10
-98.275000000000006
20
21.575000000000003
42
0.41421356237310802
10
-97.775000000000006
20
22.074999999999999
10
-97.77500000000002
20
35.075000000000003
42
0.41421356237311324
10
-98.275000000000006
20
35.574999999999989
10
-111.27500000000001
20
35.575000000000003
42
0.41421356237309243
10
-111.77500000000002
20
35.075000000000003
10
-111.77500000000002
20
22.074999999999999
42
0.41421356237309503
10
-111.27500000000001
20
21.574999999999992
0
LWPOLYLINE
5
136
100
AcDbEntity
8
0
100
AcDbPolyline
90
8
70
1
43
0.0
10
-22.074999999999999
20
21.575000000000003
42
0.41421356237309503
10
-21.575000000000003
20
22.074999999999999
10
-21.575000000000003
20
35.075000000000003
42
0.41421356237309243
10
-22.074999999999996
20
35.575000000000003
10
-35.075000000000003
20
35.575000000000003
42
0.41421356237310025
10
-35.57500000000001
20
35.075000000000003
10
-35.575000000000003
20
22.074999999999999
42
0.41421356237310281
10
-35.075000000000003
20
21.574999999999996
0
LWPOLYLINE
5
137
100
AcDbEntity
8
0
100
AcDbPolyline
90
8
70
1
43
0.0
10
-98.275000000000006
20
59.675000000000004
42
0.41421356237310542
10
-97.775000000000006
20
60.174999999999997
10
-97.77500000000002
20
73.174999999999997
42
0.41421356237311585
10
-98.275000000000006
20
73.674999999999983
10
-111.27500000000001
20
73.674999999999997
42
0.41421356237309503
10
-111.77500000000002
20
73.174999999999983
10
-111.77500000000002
20
60.174999999999997
42
0.41421356237310025
10
-111.27500000000001
20
59.674999999999997
0
LWPOLYLINE
5
138
100
AcDbEntity
8
0
100
AcDbPolyline
90
8
70
1
43
0.0
10
-50.650000000000006
20
2.5249999999999999
42
0.41421356237309404
10
-50.150000000000006
20
3.0249999999999999
10
-50.150000000000006
20
16.024999999999999
42
0.41421356237310025
10
-50.650000000000013
20
16.524999999999999
10
-63.650000000000006
20
16.524999999999999
42
0.41421356237309764
10
-64.149999999999991
20
16.024999999999999
10
-64.150000000000006
20
3.0249999999999999
42
0.41421356237310314
10
-63.650000000000006
20
2.5249999999999928
0
LWPOLYLINE
5
139
100
AcDbEntity
8
0
100
AcDbPolyline
90
8
70
1
43
0.0
10
-41.125
20
21.575000000000003
42
0.41421356237309503
10
-40.625
20
22.074999999999999
10
-40.625
20
35.075000000000003
42
0.41421356237310025
10
-41.125000000000007
20
35.575000000000003
10
-54.125000000000007
20
35.575000000000003
42
0.41421356237308721
10
-54.625
20
35.075000000000003
10
-54.625
20
22.074999999999999
42
0.41421356237308982
10
-54.125000000000014
20
21.575000000000003
0
LWPOLYLINE
5
140
100
AcDbEntity
8
0
100
AcDbPolyline
90
8
70
1
43
0.0
10
-79.224999999999994
20
78.724999999999994
42
0.41421356237310542
10
-78.724999999999994
20
79.224999999999994
10
-78.724999999999994
20
92.224999999999994
42
0.41421356237310542
10
-79.224999999999994
20
92.725000000000009
10
-92.224999999999994
20
92.724999999999994
42
0.41421356237313667
10
-92.724999999999994
20
92.224999999999994
10
-92.724999999999994
20
79.224999999999994
42
0.41421356237311063
10
-92.224999999999994
20
78.725000000000009
0
LWPOLYLINE
5
141
100
AcDbEntity
8
0
100
AcDbPolyline
90
8
70
1
43
0.0
10
-117.32500000000002
20
40.625
42
0.41421356237308982
10
-116.82500000000002
20
41.125
10
-116.82500000000002
20
54.125000000000007
42
0.41421356237309503
10
-117.32500000000002
20
54.625000000000014
10
-130.32499999999999
20
54.625
42
0.41421356237308982
10
-130.82499999999999
20
54.125000000000007
10
-130.82499999999999
20
41.125
42
0.41421356237309503
10
-130.32499999999999
20
40.624999999999993
0
LWPOLYLINE
5
142
100
AcDbEntity
8
0
100
AcDbPolyline
90
8
70
1
43
0.0
10
-12.550000000000001
20
2.5249999999999999
42
0.41421356237309404
10
-12.050000000000001
20
3.0249999999999999
10
-12.050000000000001
20
16.024999999999999
42
0.41421356237309503
10
-12.550000000000008
20
16.525000000000002
10
-25.550000000000001
20
16.524999999999999
42
0.41421356237309631
10
-26.050000000000004
20
16.024999999999999
10
-26.050000000000004
20
3.0249999999999999
42
0.41421356237310281
10
-25.549999999999997
20
2.5249999999999972
0
LWPOLYLINE
5
143
100
AcDbEntity
8
0
100
AcDbPolyline
90
8
70
1
43
0.0
10
-126.85000000000001
20
78.724999999999994
42
0.41421356237310542
10
-126.35000000000002
20
79.224999999999994
10
-126.34999999999999
20
92.224999999999994
42
0.41421356237307422
10
-126.85000000000001
20
92.725000000000009
10
-139.84999999999999
20
92.724999999999994
42
0.41421356237313667
10
-140.34999999999999
20
92.224999999999994
10
-140.34999999999999
20
79.224999999999994
42
0.41421356237310025
10
-139.84999999999999
20
78.724999999999994
0
LWPOLYLINE
5
144
100
AcDbEntity
8
0
100
AcDbPolyline
90
8
70
1
43
0.0
10
-31.600000000000001
20
2.5249999999999999
42
0.41421356237309537
10
-31.100000000000001
20
3.0249999999999999
10
-31.100000000000001
20
16.024999999999999
42
0.41421356237309631
10
-31.600000000000001
20
16.524999999999999
10
-44.600000000000001
20
16.524999999999999
42
0.41421356237309503
10
-45.099999999999994
20
16.024999999999999
10
-45.100000000000009
20
3.0249999999999999
42
0.41421356237309276
10
-44.600000000000009
20
2.5249999999999928
0
LWPOLYLINE
5
145
100
AcDbEntity
8
0
100
AcDbPolyline
90
8
70
1
43
0.0
10
-136.375
20
21.575000000000003
42
0.4142135623730846
10
-135.87500000000003
20
22.074999999999999
10
-135.875
20
35.075000000000003
42
0.41421356237307161
10
-136.375
20
35.57500000000001
10
-149.375
20
35.575000000000003
42
0.41421356237309243
10
-149.875
20
35.075000000000003
10
-149.875
20
22.074999999999999
42
0.41421356237309503
10
-149.375
20
21.574999999999992
0
LWPOLYLINE
5
146
100
AcDbEntity
8
0
100
AcDbPolyline
90
8
70
1
43
0.0
10
-174.47500000000002
20
21.575000000000003
42
0.41421356237308204
10
-173.97500000000002
20
22.074999999999999
10
-173.97500000000002
20
35.075000000000003
42
0.41421356237313145
10
-174.47500000000002
20
35.57500000000001
10
-187.47499999999999
20
35.575000000000003
42
0.41421356237313145
10
-187.97499999999999
20
35.075000000000003
10
-187.97499999999999
20
22.074999999999999
42
0.41421356237313406
10
-187.47499999999999
20
21.574999999999992
0
LWPOLYLINE
5
147
100
AcDbEntity
8
0
100
AcDbPolyline
90
8
70
1
43
0.0
10
-193.52500000000003
20
59.675000000000004
42
0.41421356237307422
10
-193.02499999999998
20
60.174999999999997
10
-193.02500000000003
20
73.174999999999997
42
0.41421356237313145
10
-193.52500000000003
20
73.674999999999997
10
-206.52500000000003
20
73.674999999999997
42
0.41421356237302737
10
-207.02500000000003
20
73.174999999999983
10
-207.02500000000001
20
60.174999999999997
42
0.41421356237310025
10
-206.52500000000003
20
59.675000000000026
0
LWPOLYLINE
5
148
100
AcDbEntity
8
0
100
AcDbPolyline
90
8
70
1
43
0.0
10
-79.224999999999994
20
21.575000000000003
42
0.41421356237309764
10
-78.725000000000009
20
22.074999999999999
10
-78.724999999999994
20
35.075000000000003
42
0.41421356237309764
10
-79.224999999999994
20
35.575000000000003
10
-92.224999999999994
20
35.575000000000003
42
0.41421356237309243
10
-92.725000000000009
20
35.075000000000003
10
-92.724999999999994
20
22.074999999999999
42
0.41421356237311324
10
-92.224999999999994
20
21.57500000000001
0
ENDSEC
0
SECTION
2
OBJECTS
0
DICTIONARY
5
C
100
AcDbDictionary
3
ACAD_GROUP
350
D
3
ACAD_MLINESTYLE
350
17
0
DICTIONARY
5
D
100
AcDbDictionary
0
DICTIONARY
5
1A
330
C
100
AcDbDictionary
0
DICTIONARY
5
17
100
AcDbDictionary
0
ENDSEC
0
EOF
